<mxfile host="app.diagrams.net" modified="2022-03-23T16:32:48.283Z" agent="5.0 (Windows NT 10.0; Win64; x64) AppleWebKit/537.36 (KHTML, like Gecko) Chrome/99.0.4844.83 Safari/537.36" etag="iWmUJTA8Sh5c3iPer3-K" version="17.1.1" type="github">
  <diagram id="C5RBs43oDa-KdzZeNtuy" name="Page-1">
    <mxGraphModel dx="1334" dy="838" grid="1" gridSize="10" guides="1" tooltips="1" connect="1" arrows="1" fold="1" page="1" pageScale="1" pageWidth="827" pageHeight="1169" math="0" shadow="0">
      <root>
        <mxCell id="WIyWlLk6GJQsqaUBKTNV-0" />
        <mxCell id="WIyWlLk6GJQsqaUBKTNV-1" parent="WIyWlLk6GJQsqaUBKTNV-0" />
        <mxCell id="7FJ0jwID8AOKC33Vv1b4-13" value="" style="edgeStyle=orthogonalEdgeStyle;rounded=0;orthogonalLoop=1;jettySize=auto;html=1;" edge="1" parent="WIyWlLk6GJQsqaUBKTNV-1" source="WIyWlLk6GJQsqaUBKTNV-3" target="7FJ0jwID8AOKC33Vv1b4-8">
          <mxGeometry relative="1" as="geometry" />
        </mxCell>
        <mxCell id="WIyWlLk6GJQsqaUBKTNV-3" value="Restaurants&lt;br&gt;&lt;br&gt;restaurantId&lt;br&gt;addressId&lt;br&gt;name&lt;br&gt;description" style="rounded=1;whiteSpace=wrap;html=1;fontSize=12;glass=0;strokeWidth=1;shadow=0;" parent="WIyWlLk6GJQsqaUBKTNV-1" vertex="1">
          <mxGeometry x="420" y="140" width="200" height="130" as="geometry" />
        </mxCell>
        <mxCell id="7FJ0jwID8AOKC33Vv1b4-12" value="" style="edgeStyle=orthogonalEdgeStyle;rounded=0;orthogonalLoop=1;jettySize=auto;html=1;" edge="1" parent="WIyWlLk6GJQsqaUBKTNV-1" source="7FJ0jwID8AOKC33Vv1b4-1" target="7FJ0jwID8AOKC33Vv1b4-11">
          <mxGeometry relative="1" as="geometry" />
        </mxCell>
        <mxCell id="7FJ0jwID8AOKC33Vv1b4-1" value="Address&lt;br&gt;&lt;br&gt;addressId&lt;br&gt;streetName&lt;br&gt;streetNumber&lt;br&gt;postalCode&lt;br&gt;city" style="rounded=1;whiteSpace=wrap;html=1;fontSize=12;glass=0;strokeWidth=1;shadow=0;" vertex="1" parent="WIyWlLk6GJQsqaUBKTNV-1">
          <mxGeometry x="627" y="140" width="200" height="120" as="geometry" />
        </mxCell>
        <mxCell id="7FJ0jwID8AOKC33Vv1b4-14" value="" style="edgeStyle=orthogonalEdgeStyle;rounded=0;orthogonalLoop=1;jettySize=auto;html=1;" edge="1" parent="WIyWlLk6GJQsqaUBKTNV-1" source="7FJ0jwID8AOKC33Vv1b4-2" target="7FJ0jwID8AOKC33Vv1b4-7">
          <mxGeometry relative="1" as="geometry" />
        </mxCell>
        <mxCell id="7FJ0jwID8AOKC33Vv1b4-2" value="Reviews&lt;br&gt;&lt;br&gt;reviewId&lt;br&gt;customerId&lt;br&gt;restaurantId&lt;br&gt;text&lt;br&gt;stars" style="rounded=1;whiteSpace=wrap;html=1;fontSize=12;glass=0;strokeWidth=1;shadow=0;" vertex="1" parent="WIyWlLk6GJQsqaUBKTNV-1">
          <mxGeometry x="210" y="140" width="200" height="130" as="geometry" />
        </mxCell>
        <mxCell id="7FJ0jwID8AOKC33Vv1b4-15" value="" style="edgeStyle=orthogonalEdgeStyle;rounded=0;orthogonalLoop=1;jettySize=auto;html=1;" edge="1" parent="WIyWlLk6GJQsqaUBKTNV-1" source="7FJ0jwID8AOKC33Vv1b4-4" target="7FJ0jwID8AOKC33Vv1b4-6">
          <mxGeometry relative="1" as="geometry" />
        </mxCell>
        <mxCell id="7FJ0jwID8AOKC33Vv1b4-4" value="Customer&lt;br&gt;&lt;br&gt;customerId&lt;br&gt;firstName&lt;br&gt;lastName&lt;br&gt;phoneNumber&lt;br&gt;emailAddress" style="rounded=1;whiteSpace=wrap;html=1;fontSize=12;glass=0;strokeWidth=1;shadow=0;" vertex="1" parent="WIyWlLk6GJQsqaUBKTNV-1">
          <mxGeometry y="140" width="200" height="130" as="geometry" />
        </mxCell>
        <mxCell id="7FJ0jwID8AOKC33Vv1b4-23" value="" style="edgeStyle=orthogonalEdgeStyle;rounded=0;orthogonalLoop=1;jettySize=auto;html=1;" edge="1" parent="WIyWlLk6GJQsqaUBKTNV-1" source="7FJ0jwID8AOKC33Vv1b4-6" target="7FJ0jwID8AOKC33Vv1b4-17">
          <mxGeometry relative="1" as="geometry">
            <Array as="points">
              <mxPoint x="100" y="430" />
              <mxPoint x="390" y="430" />
            </Array>
          </mxGeometry>
        </mxCell>
        <mxCell id="7FJ0jwID8AOKC33Vv1b4-6" value="DAO" style="rounded=1;whiteSpace=wrap;html=1;" vertex="1" parent="WIyWlLk6GJQsqaUBKTNV-1">
          <mxGeometry x="40" y="300" width="120" height="60" as="geometry" />
        </mxCell>
        <mxCell id="7FJ0jwID8AOKC33Vv1b4-20" value="" style="edgeStyle=orthogonalEdgeStyle;rounded=0;orthogonalLoop=1;jettySize=auto;html=1;" edge="1" parent="WIyWlLk6GJQsqaUBKTNV-1" source="7FJ0jwID8AOKC33Vv1b4-7" target="7FJ0jwID8AOKC33Vv1b4-17">
          <mxGeometry relative="1" as="geometry" />
        </mxCell>
        <mxCell id="7FJ0jwID8AOKC33Vv1b4-7" value="DAO" style="rounded=1;whiteSpace=wrap;html=1;" vertex="1" parent="WIyWlLk6GJQsqaUBKTNV-1">
          <mxGeometry x="250" y="300" width="120" height="60" as="geometry" />
        </mxCell>
        <mxCell id="7FJ0jwID8AOKC33Vv1b4-21" value="" style="edgeStyle=orthogonalEdgeStyle;rounded=0;orthogonalLoop=1;jettySize=auto;html=1;" edge="1" parent="WIyWlLk6GJQsqaUBKTNV-1" source="7FJ0jwID8AOKC33Vv1b4-8" target="7FJ0jwID8AOKC33Vv1b4-17">
          <mxGeometry relative="1" as="geometry">
            <Array as="points">
              <mxPoint x="390" y="360" />
            </Array>
          </mxGeometry>
        </mxCell>
        <mxCell id="7FJ0jwID8AOKC33Vv1b4-8" value="DAO" style="rounded=1;whiteSpace=wrap;html=1;" vertex="1" parent="WIyWlLk6GJQsqaUBKTNV-1">
          <mxGeometry x="460" y="300" width="120" height="60" as="geometry" />
        </mxCell>
        <mxCell id="7FJ0jwID8AOKC33Vv1b4-9" value="" style="endArrow=classic;html=1;rounded=0;exitX=0.995;exitY=0.562;exitDx=0;exitDy=0;exitPerimeter=0;entryX=0;entryY=0.5;entryDx=0;entryDy=0;" edge="1" parent="WIyWlLk6GJQsqaUBKTNV-1" source="7FJ0jwID8AOKC33Vv1b4-4" target="7FJ0jwID8AOKC33Vv1b4-2">
          <mxGeometry width="50" height="50" relative="1" as="geometry">
            <mxPoint x="390" y="430" as="sourcePoint" />
            <mxPoint x="440" y="380" as="targetPoint" />
          </mxGeometry>
        </mxCell>
        <mxCell id="7FJ0jwID8AOKC33Vv1b4-10" value="" style="endArrow=classic;html=1;rounded=0;exitX=1;exitY=0.5;exitDx=0;exitDy=0;entryX=0;entryY=0.5;entryDx=0;entryDy=0;" edge="1" parent="WIyWlLk6GJQsqaUBKTNV-1" source="7FJ0jwID8AOKC33Vv1b4-2" target="WIyWlLk6GJQsqaUBKTNV-3">
          <mxGeometry width="50" height="50" relative="1" as="geometry">
            <mxPoint x="410" y="260" as="sourcePoint" />
            <mxPoint x="460" y="210" as="targetPoint" />
          </mxGeometry>
        </mxCell>
        <mxCell id="7FJ0jwID8AOKC33Vv1b4-22" value="" style="edgeStyle=orthogonalEdgeStyle;rounded=0;orthogonalLoop=1;jettySize=auto;html=1;" edge="1" parent="WIyWlLk6GJQsqaUBKTNV-1" source="7FJ0jwID8AOKC33Vv1b4-11" target="7FJ0jwID8AOKC33Vv1b4-17">
          <mxGeometry relative="1" as="geometry">
            <Array as="points">
              <mxPoint x="727" y="410" />
              <mxPoint x="400" y="410" />
            </Array>
          </mxGeometry>
        </mxCell>
        <mxCell id="7FJ0jwID8AOKC33Vv1b4-11" value="DAO" style="rounded=1;whiteSpace=wrap;html=1;" vertex="1" parent="WIyWlLk6GJQsqaUBKTNV-1">
          <mxGeometry x="667" y="300" width="120" height="60" as="geometry" />
        </mxCell>
        <mxCell id="7FJ0jwID8AOKC33Vv1b4-16" value="GUI" style="whiteSpace=wrap;html=1;" vertex="1" parent="WIyWlLk6GJQsqaUBKTNV-1">
          <mxGeometry x="285" y="580" width="210" height="110" as="geometry" />
        </mxCell>
        <mxCell id="7FJ0jwID8AOKC33Vv1b4-24" value="" style="edgeStyle=orthogonalEdgeStyle;rounded=0;orthogonalLoop=1;jettySize=auto;html=1;" edge="1" parent="WIyWlLk6GJQsqaUBKTNV-1" source="7FJ0jwID8AOKC33Vv1b4-17" target="7FJ0jwID8AOKC33Vv1b4-19">
          <mxGeometry relative="1" as="geometry" />
        </mxCell>
        <mxCell id="7FJ0jwID8AOKC33Vv1b4-25" value="" style="edgeStyle=orthogonalEdgeStyle;rounded=0;orthogonalLoop=1;jettySize=auto;html=1;" edge="1" parent="WIyWlLk6GJQsqaUBKTNV-1" source="7FJ0jwID8AOKC33Vv1b4-17" target="7FJ0jwID8AOKC33Vv1b4-16">
          <mxGeometry relative="1" as="geometry" />
        </mxCell>
        <mxCell id="7FJ0jwID8AOKC33Vv1b4-17" value="Data" style="whiteSpace=wrap;html=1;" vertex="1" parent="WIyWlLk6GJQsqaUBKTNV-1">
          <mxGeometry x="330" y="450" width="120" height="60" as="geometry" />
        </mxCell>
        <mxCell id="7FJ0jwID8AOKC33Vv1b4-19" value="SQL DATABAS" style="whiteSpace=wrap;html=1;" vertex="1" parent="WIyWlLk6GJQsqaUBKTNV-1">
          <mxGeometry x="547" y="450" width="120" height="60" as="geometry" />
        </mxCell>
      </root>
    </mxGraphModel>
  </diagram>
</mxfile>
